<svg width="238" height="49" viewBox="0 0 238 49" fill="none" xmlns="http://www.w3.org/2000/svg">
<path d="M81.8662 39.2468C80.9931 38.7447 80.2958 38.0692 79.7775 37.2234C79.2592 36.3776 79 35.4361 79 34.4019V9H83.8006V34.2734C83.8006 34.5604 83.9117 34.8114 84.1338 35.0266C84.356 35.2418 84.6151 35.3494 84.9113 35.3494H105.046C105.373 35.3494 105.638 35.2418 105.845 35.0266C106.051 34.8114 106.156 34.5604 106.156 34.2734V9H111V34.4019C111 35.4361 110.741 36.3746 110.223 37.2234C109.704 38.0692 109.001 38.7447 108.112 39.2468C107.224 39.7489 106.261 40 105.224 40H84.7817C83.7142 40 82.7455 39.7489 81.8693 39.2468H81.8662Z" fill="#231F20"/>
<path d="M118 40V9H122V40H118Z" fill="#231F20"/>
<path d="M129 40V9H134.911L157.005 33.7145V9H162V40H156.089L133.951 15.2436V40H129Z" fill="#231F20"/>
<path d="M173.779 40C172.711 40 171.742 39.7489 170.866 39.2468C169.99 38.7447 169.296 38.0692 168.777 37.2234C168.259 36.3776 168 35.4361 168 34.4019V14.5981C168 13.5639 168.259 12.6254 168.777 11.7766C169.296 10.9308 169.993 10.2553 170.866 9.75318C171.739 9.25106 172.711 9 173.779 9H194.221C195.258 9 196.224 9.25106 197.109 9.75318C197.998 10.2553 198.701 10.9308 199.223 11.7766C199.741 12.6224 200 13.5639 200 14.5981V34.4019C200 35.4361 199.741 36.3746 199.223 37.2234C198.704 38.0692 198.001 38.7447 197.109 39.2468C196.221 39.7489 195.258 40 194.221 40H173.779ZM173.911 35.3494H194.046C194.373 35.3494 194.638 35.2418 194.845 35.0266C195.051 34.8114 195.156 34.5604 195.156 34.2734V14.7266C195.156 14.4396 195.051 14.1886 194.845 13.9734C194.638 13.7582 194.369 13.6506 194.046 13.6506H173.911C173.615 13.6506 173.356 13.7582 173.134 13.9734C172.912 14.1886 172.801 14.4396 172.801 14.7266V34.2734C172.801 34.5604 172.912 34.8114 173.134 35.0266C173.356 35.2418 173.615 35.3494 173.911 35.3494Z" fill="#231F20"/>
<path d="M75.997 39.997L69.3149 33.3834V14.5975C69.3149 13.5635 69.0613 12.6251 68.554 11.7763C68.0467 10.9306 67.3583 10.2552 66.4887 9.75311C65.6191 9.25104 64.677 9 63.6625 9H43.6555C42.6107 9 41.6626 9.25104 40.8051 9.75311C39.9506 10.2552 39.2682 10.9306 38.7609 11.7763C38.2536 12.6221 38 13.5635 38 14.5975V34.4025C38 35.4365 38.2536 36.3749 38.7609 37.2237C39.2682 38.0694 39.9506 38.7448 40.8051 39.2469C41.6596 39.749 42.6107 40 43.6555 40H63.6625C64.677 40 65.6191 39.749 66.4887 39.2469C67.2707 38.7956 67.8988 38.1949 68.3909 37.4627L70.9545 40H76L75.997 39.997ZM64.5743 34.271C64.5743 34.5579 64.4717 34.8089 64.2694 35.0241C64.0671 35.2393 63.8044 35.3469 63.4873 35.3469H43.7823C43.4924 35.3469 43.2388 35.2393 43.0214 35.0241C42.804 34.8089 42.6953 34.5579 42.6953 34.271V14.726C42.6953 14.4391 42.804 14.1881 43.0214 13.9729C43.2388 13.7577 43.4924 13.6501 43.7823 13.6501H63.4873C63.8044 13.6501 64.0671 13.7577 64.2694 13.9729C64.4717 14.1881 64.5743 14.4391 64.5743 14.726V28.6914L62.2705 26.4112H57.225L64.5743 33.6852V34.271Z" fill="#231F20"/>
<path d="M217.36 31.8375L223.571 24.506L223.565 24.5L228.047 19.2218L236 9.86078V9H230.564L220.52 20.8417L210.433 9H205V9.86078L217.435 24.5L205 39.1392V40H210.433L217.36 31.8375Z" fill="#231F20"/>
<path d="M226.069 27L223 30.7769L230.56 40H236V39.1113L226.069 27Z" fill="#ED1C24"/>
<path d="M122 2C122 0.895431 121.105 0 120 0C118.895 0 118 0.895431 118 2C118 3.10457 118.895 4 120 4C121.105 4 122 3.10457 122 2Z" fill="#ED1C24"/>
<path d="M2 9V17H6.95424V13.7657H32V9H2Z" fill="#231F20"/>
<path d="M6.95424 32H2V40H32V35.5123H6.95424V32Z" fill="#231F20"/>
<path d="M238 49H2V45H238V49Z" fill="#ED1C24"/>
<path d="M1.85565 27H24V22H1.85565L0 24.5L1.85565 27Z" fill="#ED1C24"/>
</svg>
