<svg id="Layer_1" data-name="Layer 1" xmlns="http://www.w3.org/2000/svg" viewBox="0 0 210 77.37"><defs><style>.cls-1{fill:#ef4135;}.cls-2{fill:#1c3f94;}</style></defs><path class="cls-1" d="M381.21,306.74l.85-2h1.73l-.08,2h1.58l0-7.89h-2l-3.71,7.89Zm2.31-5.4c.16-.37.28-.72.4-1.09l.18-.53h0c0,.17,0,.35-.07.53,0,.37-.09.72-.11,1.09l-.12,2.25h-1.26Z" transform="translate(-329.4 -229.57)"/><path class="cls-1" d="M393.94,298.85h1.47l-1.27,5.5c-.41,1.75-1.16,2.58-3.09,2.58s-2.32-.83-1.92-2.58l1.27-5.5h1.48l-1.24,5.38c-.18.76-.3,1.51.69,1.51s1.19-.75,1.36-1.51Z" transform="translate(-329.4 -229.57)"/><polygon class="cls-1" points="69.38 69.28 74.29 69.28 74.02 70.44 72.31 70.44 70.75 77.18 69.28 77.18 70.83 70.44 69.11 70.44 69.38 69.28"/><path class="cls-1" d="M406,303.29c-.49,2.1-.69,3.64,1.73,3.64s2.93-1.54,3.42-3.64l.26-1.13c.41-2,.59-3.5-1.76-3.5s-2.86,1.49-3.39,3.5Zm1.85-1.45.07-.3c.15-.67.45-1.69,1.45-1.69s.77,1.25.62,1.92l-.5,2.13c-.17.76-.44,1.84-1.49,1.84s-.81-1.06-.66-1.71Z" transform="translate(-329.4 -229.57)"/><path class="cls-1" d="M415.58,306.74h-1.47l1.83-7.89h2.34l0,3.66a16.14,16.14,0,0,1-.15,1.82h0c.25-.78.43-1.3.65-1.82l1.64-3.66h2.34l-1.83,7.89h-1.47l.57-2.48c.36-1.57.76-3.14,1.21-4.71h0L418,306.74h-.9l.13-7.19h-.06c-.26,1.57-.6,3.14-1,4.71Z" transform="translate(-329.4 -229.57)"/><path class="cls-1" d="M425.51,303.29c-.49,2.1-.69,3.64,1.73,3.64s2.94-1.54,3.43-3.64l.26-1.13c.4-2,.59-3.5-1.77-3.5s-2.86,1.49-3.39,3.5Zm1.85-1.45.06-.3c.16-.67.47-1.69,1.46-1.69s.78,1.25.62,1.92L429,303.9c-.18.76-.44,1.84-1.49,1.84s-.82-1.06-.67-1.71Z" transform="translate(-329.4 -229.57)"/><path class="cls-1" d="M436.25,306.74a2.35,2.35,0,0,0,2.27-1.42,4.45,4.45,0,0,0,.33-1c.24-1,.08-1.71-.72-1.83v0a2,2,0,0,0,1.33-1.65,1.91,1.91,0,0,0-.06-1.42c-.29-.54-.91-.58-1.54-.58h-2.38l-1.83,7.89Zm0-4.7.47-2h.68c.67,0,.73.31.59.9a1.76,1.76,0,0,1-.36.85,1.29,1.29,0,0,1-1,.28Zm-.82,3.54.55-2.38h.57c.92,0,1,.35.8,1.21a1.43,1.43,0,0,1-.7,1.09,1.63,1.63,0,0,1-.58.08Z" transform="translate(-329.4 -229.57)"/><polygon class="cls-1" points="114.46 69.28 112.63 77.18 114.1 77.18 115.92 69.28 114.46 69.28"/><polygon class="cls-1" points="119.83 69.28 118.01 77.18 122.21 77.18 122.48 76.02 119.74 76.02 121.3 69.28 119.83 69.28"/><polygon class="cls-1" points="125.69 77.17 127.52 69.28 131.66 69.28 131.4 70.44 128.73 70.44 128.27 72.43 130.73 72.43 130.46 73.58 128 73.58 127.44 76.02 130.11 76.02 129.84 77.17 125.69 77.17"/><path class="cls-1" d="M472.25,301.25l0-.12c.16-.66.21-1.28-.57-1.28a.9.9,0,0,0-1,.74c-.13.59.19.83.59,1.12A9.65,9.65,0,0,1,472.8,303a1.76,1.76,0,0,1,.29,1.66,2.86,2.86,0,0,1-3,2.27c-1.77,0-2.17-1-1.85-2.4l.14-.58h1.47l-.14.61c-.16.68,0,1.18.65,1.18a1.05,1.05,0,0,0,1.13-.92,1,1,0,0,0-.34-1c-.63-.61-1.49-1-1.91-1.82a2,2,0,0,1-.1-1.22,2.57,2.57,0,0,1,2.8-2.08c2.34,0,1.86,1.81,1.69,2.59Z" transform="translate(-329.4 -229.57)"/><polygon class="cls-1" points="146.86 77.17 148.69 69.28 152.83 69.28 152.56 70.44 149.9 70.44 149.44 72.43 151.9 72.43 151.63 73.58 149.17 73.58 148.6 76.02 151.27 76.02 151 77.17 146.86 77.17"/><path class="cls-1" d="M486.54,303.35h.19a3.44,3.44,0,0,1,1,.1c.47.15.32.81.21,1.29l-.08.35a6.1,6.1,0,0,0-.23,1.65h1.62l0-.15c-.25-.19,0-1.49.18-2.15l.08-.34c.18-.75,0-1.32-.8-1.43v0c1-.14,1.45-1,1.65-1.91.34-1.45-.53-1.89-1.8-1.89h-2.79L484,306.74h1.48l.79-3.39Zm.51-3.34h1.09c.56,0,.89.15.69,1s-.64,1.1-1.13,1.13h-1.16Z" transform="translate(-329.4 -229.57)"/><path class="cls-1" d="M498.11,298.85h1.58l-3.54,7.89h-2l.08-7.89h1.58l-.25,5.06a12.57,12.57,0,0,1-.13,1.35c0,.21,0,.43-.08.65h0c0-.22.14-.44.21-.65a13.65,13.65,0,0,1,.49-1.35Z" transform="translate(-329.4 -229.57)"/><polygon class="cls-1" points="173.7 69.28 171.87 77.18 173.35 77.18 175.18 69.28 173.7 69.28"/><path class="cls-1" d="M512,303.93c-.05.15-.1.31-.14.45-.41,1.45-1.15,2.55-2.79,2.55-2.42,0-2.22-1.53-1.73-3.64l.26-1.13c.52-2,1-3.5,3.38-3.5,1.32,0,1.9.69,1.7,2,0,.17,0,.33-.09.5l0,.1h-1.45c0-.51.31-1.45-.41-1.45-1,0-1.3,1-1.45,1.69l-.58,2.48c-.15.66-.35,1.72.67,1.72.8,0,1-1.3,1.16-1.81Z" transform="translate(-329.4 -229.57)"/><polygon class="cls-1" points="185.55 77.17 187.38 69.28 191.52 69.28 191.25 70.44 188.58 70.44 188.13 72.43 190.59 72.43 190.31 73.58 187.86 73.58 187.29 76.02 189.96 76.02 189.69 77.17 185.55 77.17"/><path class="cls-1" d="M527,301.25l0-.12c.15-.66.2-1.28-.57-1.28a.88.88,0,0,0-1,.74c-.14.59.18.83.58,1.12a9.65,9.65,0,0,1,1.48,1.29,1.76,1.76,0,0,1,.29,1.66,2.86,2.86,0,0,1-3,2.27c-1.77,0-2.18-1-1.85-2.4l.14-.58h1.47l-.13.61c-.17.68,0,1.18.64,1.18a1.07,1.07,0,0,0,1.14-.92.94.94,0,0,0-.35-1c-.63-.61-1.49-1-1.91-1.82a2.09,2.09,0,0,1-.1-1.22,2.57,2.57,0,0,1,2.8-2.08c2.35,0,1.86,1.81,1.7,2.59Z" transform="translate(-329.4 -229.57)"/><polygon class="cls-2" points="95.92 17.48 84.87 65.16 72.76 65.16 70.56 43.48 65.54 65.16 53.91 65.16 64.95 17.48 76.52 17.48 79.31 38.94 84.28 17.48 95.92 17.48"/><polygon class="cls-2" points="115.41 17.42 104.35 65.16 90.47 65.16 101.52 17.42 115.41 17.42"/><polygon class="cls-2" points="148.85 17.48 146.64 27.02 138.41 27.02 129.57 65.16 115.7 65.16 124.52 27.02 116.37 27.02 118.57 17.48 148.85 17.48"/><polygon class="cls-2" points="152.07 17.48 175.22 17.48 173 27.02 163.75 27.02 161.64 36.08 170.29 36.08 168.19 45.15 159.55 45.15 157.12 55.61 167.26 55.61 165.05 65.16 141.02 65.16 152.07 17.48"/><path class="cls-2" d="M498.48,294.72H516a43.57,43.57,0,0,0,7.56-.48,12.91,12.91,0,0,0,4.54-1.71,8.79,8.79,0,0,0,3.14-3.39c.79-1.43,1.67-4.3,2.66-8.58l3.87-16.7a58.21,58.21,0,0,0,1.64-9.09,6.42,6.42,0,0,0-1.33-4.19,8.12,8.12,0,0,0-4.76-2.71q-3.34-.83-13.4-.82H509.52Zm26-39.1a1.5,1.5,0,0,1,.74,1.34,24.35,24.35,0,0,1-.73,4.16l-4.3,18.53q-1.11,4.77-2,5.85c-.63.71-1.93,1.08-3.92,1.08l7.27-31.39a6.82,6.82,0,0,1,3,.43" transform="translate(-329.4 -229.57)"/><path class="cls-2" d="M388.9,247.09l-8.52,36.79s-5.86,21.05-24.39,21.05h-5.43s9.88-2.13,12.66-14.13,10.12-43.71,10.12-43.71Z" transform="translate(-329.4 -229.57)"/><path class="cls-1" d="M343.7,290.8c1.53-6.62,4.46-19.24,6.76-29.23-6.2,7.73-12.09,9.24-12.09,9.24A57.58,57.58,0,0,0,353,250.67c.51-2.24.82-3.58.82-3.58H338.26l-8.53,36.79s-3.88,21.05,14.65,21.05h5.44s-8.9-2.13-6.12-14.13" transform="translate(-329.4 -229.57)"/><path class="cls-1" d="M447.34,236.43a9.13,9.13,0,0,1-8.44,6.85c-3.79,0-6.15-3.06-5.27-6.85a9.15,9.15,0,0,1,8.44-6.86c3.79,0,6.14,3.07,5.27,6.86" transform="translate(-329.4 -229.57)"/></svg>